<?xml version="1.0" standalone="no"?>
<!DOCTYPE svg PUBLIC "-//W3C//DTD SVG 20010904//EN"
 "http://www.w3.org/TR/2001/REC-SVG-20010904/DTD/svg10.dtd">
<svg version="1.0" xmlns="http://www.w3.org/2000/svg"
 width="512.000000pt" height="512.000000pt" viewBox="0 0 512.000000 512.000000"
 preserveAspectRatio="xMidYMid meet">
<metadata>
Created by potrace 1.14, written by Peter Selinger 2001-2017
</metadata>
<g transform="translate(0.000000,512.000000) scale(0.100000,-0.100000)"
fill="#000000" stroke="none">
<path d="M989 5115 c-3 -2 -19 -6 -37 -10 -143 -25 -295 -180 -331 -336 -15
-65 -15 -4340 0 -4411 35 -167 163 -298 334 -344 41 -11 338 -14 1611 -14
1526 0 1563 0 1625 20 153 47 264 162 304 315 13 52 15 265 15 1765 0 1680 0
1705 -20 1737 -11 18 -298 311 -638 651 -504 504 -625 620 -652 626 -36 7
-2204 8 -2211 1z"/>
</g>
</svg>
